# xmcd
# 
# Track frame offsets:
#     150
#     11562
#     24301
#     33362
#     43936
#     55246
#     66704
#     78324
#     90772
#     106328
#     119932
#     134232
#     146900
#     159223
#     172788
#     188133
#     200026
#     213880
#     227690
#     242641
#     256227
#     269410
#     282355
#     296040
#     307827
# 
# Disc length: 4273
# 
# Revision: 0
# Processed by: cddbd v1.5.2PL0 Copyright (c) Steve Scherf et al.
# Submitted via: fre:ac v1.0.27
# 
DISCID=6f10af19
DTITLE=Various Artist - Hot Hundred Blues - Disc 1
DYEAR=2014
DGENRE=Blues
TTITLE0=John Lee Hooker - Boom Boom
TTITLE1=Muddy Waters - I'm Your Hoochie Coochie Man
TTITLE2=Howlin' Wolf - Smokestack Lightning
TTITLE3=Jimmy Reed - Baby, What You Want Me To Do
TTITLE4=Robert Johnson - Cross Road Blues
TTITLE5=B. B. King - Did You Ever Love A Woman?
TTITLE6=Lightnin' Hopkins - See See Rider
TTITLE7=Elmore James - Dust My Broom
TTITLE8=Bessie Smith - Taint Nobody's Business If I Do
TTITLE9=T-Bone Walker - Call It Stormy Monday (But Tuesday Is Just As Bad)
TTITLE10=Alexis Korner - I Got My Mojo Working
TTITLE11=Sonny Boy Williamson II - Nine Below Zero
TTITLE12=Little Brother Montgomery - The First Time I Met The Blues
TTITLE13=Robert Johnson - Terraplane Blues
TTITLE14=Howlin' Wolf - Going Down Slow
TTITLE15=Lightnin' Hopkins - Can't Get That Woman Off My Mind
TTITLE16=B. B. King - You Know I Love You
TTITLE17=Elmore James - It Hurts Me Too
TTITLE18=Ray Charles - Drown In My Own Tears
TTITLE19=Alexis Korner - Streamline Train
TTITLE20=T-Bone Walker - I'm Still In Love WIth You
TTITLE21=Jimmy Reed - You've Got Me Dizzy
TTITLE22=Muddy Waters - Mad Love
TTITLE23=Robert Johnson - Come On In My Kitchen
TTITLE24=B. B. King - Walkin' And Cryin
EXTD=
EXTT0=
EXTT1=
EXTT2=
EXTT3=
EXTT4=
EXTT5=
EXTT6=
EXTT7=
EXTT8=
EXTT9=
EXTT10=
EXTT11=
EXTT12=
EXTT13=
EXTT14=
EXTT15=
EXTT16=
EXTT17=
EXTT18=
EXTT19=
EXTT20=
EXTT21=
EXTT22=
EXTT23=
EXTT24=
PLAYORDER=
